<?xml version="1.0" encoding="UTF-8" standalone="no"?>
<!DOCTYPE svg PUBLIC "-//W3C//DTD SVG 1.1//EN" "http://www.w3.org/Graphics/SVG/1.1/DTD/svg11.dtd">
<svg width="100%" height="100%" viewBox="0 0 80 80" version="1.1" xmlns="http://www.w3.org/2000/svg" xmlns:xlink="http://www.w3.org/1999/xlink" xml:space="preserve" xmlns:serif="http://www.serif.com/" style="fill-rule:evenodd;clip-rule:evenodd;stroke-linejoin:round;stroke-miterlimit:2;">
    <g transform="matrix(1.04086,0,0,1,-1.63448,0)">
        <path d="M74.152,8.141C74.152,3.648 70.647,0 66.331,0L13.669,0C9.353,0 5.848,3.648 5.848,8.141L5.848,71.859C5.848,76.352 9.353,80 13.669,80L66.331,80C70.647,80 74.152,76.352 74.152,71.859L74.152,8.141Z" style="fill:rgb(11,114,184);"/>
    </g>
    <g transform="matrix(55.4997,0,0,55.4997,23.9051,58.5091)">
        <path d="M0.516,-0.667L0.516,-0.519L0.468,-0.519C0.463,-0.535 0.458,-0.549 0.453,-0.561C0.447,-0.573 0.442,-0.583 0.437,-0.591C0.431,-0.599 0.425,-0.606 0.418,-0.611C0.412,-0.616 0.404,-0.619 0.395,-0.621C0.385,-0.623 0.375,-0.624 0.362,-0.624L0.208,-0.624L0.208,-0.368L0.312,-0.368C0.326,-0.368 0.338,-0.37 0.346,-0.374C0.354,-0.378 0.361,-0.385 0.366,-0.395C0.371,-0.404 0.376,-0.42 0.381,-0.44L0.427,-0.44L0.427,-0.253L0.381,-0.253C0.377,-0.272 0.372,-0.287 0.366,-0.297C0.361,-0.307 0.354,-0.314 0.346,-0.318C0.339,-0.323 0.327,-0.325 0.312,-0.325L0.208,-0.325L0.208,-0.043L0.359,-0.043C0.375,-0.043 0.388,-0.044 0.398,-0.047C0.408,-0.05 0.417,-0.055 0.424,-0.061C0.431,-0.068 0.437,-0.077 0.443,-0.087C0.448,-0.098 0.453,-0.109 0.457,-0.121C0.461,-0.132 0.466,-0.149 0.472,-0.171L0.521,-0.171L0.511,0L0.059,0L0.059,-0.024C0.079,-0.029 0.093,-0.035 0.1,-0.041C0.106,-0.048 0.111,-0.057 0.113,-0.068C0.115,-0.08 0.116,-0.098 0.116,-0.122L0.116,-0.544C0.116,-0.567 0.115,-0.583 0.114,-0.594C0.112,-0.604 0.109,-0.612 0.106,-0.617C0.102,-0.623 0.097,-0.628 0.091,-0.631C0.085,-0.635 0.074,-0.638 0.059,-0.643L0.059,-0.667L0.516,-0.667Z" style="fill:white;fill-rule:nonzero;"/>
    </g>
</svg>
