<svg clip-rule="evenodd" fill-rule="evenodd" stroke-linejoin="round" stroke-miterlimit="2" viewBox="0 0 80 80" xmlns="http://www.w3.org/2000/svg"><path d="m74.152 8.141c0-4.493-3.505-8.141-7.821-8.141h-52.662c-4.316 0-7.821 3.648-7.821 8.141v63.718c0 4.493 3.505 8.141 7.821 8.141h52.662c4.316 0 7.821-3.648 7.821-8.141z" fill="#0b72b8" transform="matrix(1.04086 0 0 1 -1.63448 0)"/><g fill="#fff" fill-rule="nonzero"><path d="m.516-.667v.148h-.048c-.005-.016-.01-.03-.015-.042-.006-.012-.011-.022-.016-.03-.006-.008-.012-.015-.019-.02-.006-.005-.014-.008-.023-.01-.01-.002-.02-.003-.033-.003h-.154v.256h.104c.014 0 .026-.002.034-.006s.015-.011.02-.021c.005-.009.01-.025.015-.045h.046v.187h-.046c-.004-.019-.009-.034-.015-.044-.005-.01-.012-.017-.02-.021-.007-.005-.019-.007-.034-.007h-.104v.282h.151c.016 0 .029-.001.039-.004s.019-.008.026-.014c.007-.007.013-.016.019-.026.005-.011.01-.022.014-.034.004-.011.009-.028.015-.05h.049l-.01.171h-.452v-.024c.02-.005.034-.011.041-.017.006-.007.011-.016.013-.027.002-.012.003-.03.003-.054v-.422c0-.023-.001-.039-.002-.05-.002-.01-.005-.018-.008-.023-.004-.006-.009-.011-.015-.014-.006-.004-.017-.007-.032-.012v-.024z" transform="matrix(48 0 0 48 12.648 54.957)"/><path d="m.18-.015v.103c0 .022 0 .037.002.048.001.01.004.018.008.024.003.006.009.011.016.015s.018.008.034.011v.024h-.199v-.024c.011-.003.021-.007.028-.01s.013-.008.017-.015.006-.016.008-.027c.001-.012.002-.027.002-.046v-.419c0-.023-.001-.04-.001-.05-.001-.01-.002-.018-.004-.024-.002-.007-.005-.012-.009-.016-.003-.005-.009-.008-.015-.011s-.017-.006-.031-.009v-.026l.114-.004h.03l-.006.079.007.002c.02-.02.036-.035.048-.044.012-.01.024-.017.036-.024.013-.006.025-.01.037-.013.011-.002.023-.004.036-.004.054 0 .095.02.124.061.029.04.043.099.043.176 0 .054-.008.099-.024.136-.016.036-.04.064-.071.082-.031.019-.068.028-.111.028-.024 0-.046-.002-.066-.006-.019-.004-.037-.01-.053-.017zm0-.161c0 .031.002.056.006.072.003.017.01.031.02.042.01.01.022.018.035.023.014.006.032.008.054.008.039 0 .069-.016.089-.049s.03-.081.03-.145c0-.127-.038-.191-.112-.191-.018 0-.034.003-.047.009-.014.005-.027.014-.04.027s-.022.025-.027.037c-.006.012-.008.025-.008.038z" transform="matrix(48 0 0 48 40.257 54.957)"/></g></svg>